# xmcd CD database file
#
# Track frame offsets:
#	150
#	15972
#	35927
#	52270
#
# Disc length: 996 seconds
#
# Revision: 0
# Processed by: cddbd v1.5.1PL0 Copyright (c) Steve Scherf et al.
# Submitted via: CDex 1.51
#
DISCID=3003e204
DTITLE=Bad Loser - Bad Loser
DYEAR=1900
DGENRE=Hard Rock
TTITLE0=Hungry Guys
TTITLE1=One Of The Night
TTITLE2=Long Away
TTITLE3=1945
EXTD=
EXTT0=
EXTT1=
EXTT2=
EXTT3=
PLAYORDER=
